<svg width="1440" height="100" viewBox="0 0 1440 100" fill="none" xmlns="http://www.w3.org/2000/svg">
<g clip-path="url(#clip0)">
<path d="M631.67 45.1292L634.277 55.1523C634.846 57.3431 635.372 59.3916 635.745 61.4291H635.865C636.314 59.4354 636.961 57.3212 637.618 55.1523L640.838 45.1292H643.851L646.907 54.988C647.641 57.3541 648.211 59.4354 648.66 61.4291H648.813C649.193 59.2703 649.694 57.1345 650.314 55.0318L653.129 45.173H656.678L650.314 64.8906H647.027L644.015 55.4809C643.325 53.2901 642.755 51.3293 642.262 49.007H642.24C641.747 51.1983 641.128 53.3598 640.389 55.4809L637.212 64.8577H633.926L628 45.1292H631.67Z" fill="#47585B"/>
<path d="M677.699 54.8346C677.699 62.1301 672.649 65.3068 667.84 65.3068C662.495 65.3068 658.376 61.3962 658.376 55.1523C658.376 48.5798 662.703 44.6801 668.158 44.6801C673.865 44.6801 677.699 48.7989 677.699 54.8346ZM662.046 55.0318C662.046 59.3587 664.532 62.6121 668.038 62.6121C671.543 62.6121 674.03 59.3916 674.03 54.9442C674.03 51.6031 672.365 47.3639 668.125 47.3639C663.886 47.3639 662.046 51.2855 662.046 55.0318Z" fill="#47585B"/>
<path d="M682.234 51.2855C682.234 48.9632 682.234 46.9038 682.07 45.1292H685.214L685.334 48.996H685.499C685.838 47.79 686.551 46.7227 687.535 45.9472C688.519 45.1718 689.724 44.7282 690.976 44.6801C691.319 44.6763 691.662 44.7168 691.995 44.8006V48.1854C691.595 48.1013 691.187 48.0609 690.779 48.0649C688.248 48.0649 686.452 49.9819 685.97 52.6657C685.856 53.2321 685.793 53.8078 685.783 54.3855V64.9015H682.234V51.2855Z" fill="#47585B"/>
<path d="M695.741 35.9167H699.323V64.8577H695.741V35.9167Z" fill="#47585B"/>
<path d="M722.392 35.9167V59.764C722.392 61.5167 722.392 63.5103 722.557 64.8577H719.336L719.183 61.429H719.095C718.456 62.6525 717.482 63.6695 716.288 64.3617C715.093 65.054 713.727 65.3931 712.347 65.3397C707.582 65.3397 703.913 61.3085 703.913 55.3166C703.913 48.7441 707.944 44.7129 712.753 44.7129C713.925 44.6369 715.095 44.8763 716.143 45.406C717.191 45.9358 718.078 46.7367 718.712 47.7253H718.789V35.9167H722.392ZM718.81 53.1586C718.815 52.65 718.76 52.1426 718.646 51.6469C718.389 50.4619 717.731 49.4017 716.783 48.6454C715.835 47.8891 714.655 47.4829 713.443 47.4953C709.729 47.4953 707.528 50.7816 707.528 55.1632C707.528 59.1506 709.488 62.4587 713.355 62.4587C714.59 62.4549 715.785 62.0275 716.742 61.2479C717.699 60.4683 718.36 59.3837 718.613 58.1756C718.747 57.6532 718.813 57.1157 718.81 56.5763V53.1586Z" fill="#47585B"/>
<path d="M732.678 40.397V45.1292H737.816V47.813H732.678V58.4495C732.678 60.9032 733.38 62.2835 735.373 62.2835C736.075 62.3122 736.778 62.2309 737.455 62.0425L737.619 64.7263C736.599 65.1028 735.518 65.2849 734.431 65.263C733.712 65.2997 732.994 65.1795 732.327 64.9109C731.659 64.6423 731.057 64.2317 730.564 63.7075C729.546 62.6121 729.173 60.9032 729.173 58.581V47.813H726.117V45.1292H729.173V41.5034L732.678 40.397Z" fill="#FFBA08"/>
<path d="M741.858 51.2855C741.858 48.9632 741.858 46.9038 741.694 45.1292H744.838L744.958 48.996H745.122C745.462 47.79 746.175 46.7227 747.159 45.9472C748.143 45.1718 749.348 44.7282 750.6 44.6801C750.943 44.6763 751.285 44.7168 751.618 44.8006V48.1854C751.219 48.1013 750.811 48.0609 750.402 48.0649C747.872 48.0649 746.021 49.9819 745.593 52.6657C745.489 53.2184 745.434 53.7793 745.429 54.3417V64.8577H741.88L741.858 51.2855Z" fill="#FFBA08"/>
<path d="M759.352 39.5864C759.352 40.1761 759.118 40.7417 758.701 41.1588C758.284 41.5758 757.718 41.8101 757.128 41.8101C756.539 41.8101 755.973 41.5758 755.556 41.1588C755.139 40.7417 754.905 40.1761 754.905 39.5864C754.897 39.2894 754.95 38.994 755.06 38.7182C755.17 38.4423 755.335 38.1918 755.546 37.9817C755.756 37.7717 756.006 37.6066 756.282 37.4964C756.558 37.3862 756.853 37.3332 757.15 37.3408C757.443 37.3392 757.734 37.3966 758.005 37.5094C758.276 37.6223 758.521 37.7883 758.726 37.9977C758.932 38.2072 759.093 38.4557 759.2 38.7286C759.308 39.0015 759.359 39.2932 759.352 39.5864ZM755.354 64.8577V45.1402H758.947V64.8577H755.354Z" fill="#FFBA08"/>
<path d="M764.928 51.5703C764.928 49.0399 764.84 47.0024 764.763 45.1292H767.984L768.137 48.5141H768.214C768.924 47.2981 769.951 46.2986 771.187 45.6231C772.422 44.9476 773.818 44.6216 775.225 44.6801C779.99 44.6801 783.583 48.7112 783.583 54.7032C783.583 61.8015 779.201 65.3069 774.611 65.3069C773.418 65.3595 772.231 65.1015 771.168 64.5581C770.104 64.0147 769.199 63.2046 768.543 62.2068H768.455V72.92H764.928V51.5703ZM768.466 56.8283C768.478 57.3214 768.533 57.8125 768.63 58.2962C768.931 59.495 769.623 60.5591 770.598 61.3192C771.572 62.0794 772.773 62.4921 774.009 62.4916C777.799 62.4916 780.001 59.3916 780.001 54.8237C780.001 50.8692 777.919 47.4953 774.129 47.4953C772.863 47.5312 771.645 47.9862 770.666 48.7892C769.686 49.5921 769.001 50.6974 768.718 51.9318C768.567 52.4073 768.483 52.9012 768.466 53.3996V56.8283Z" fill="#FFBA08"/>
<path d="M626.905 62.2178C728.231 71.6384 787.822 45.1292 787.822 45.1292C787.822 45.1292 745.922 74.9137 625.36 69.1408" fill="#F5F8FA"/>
<path d="M729.217 59.8626C766.034 54.2212 786.179 45.2387 786.179 45.2387C786.179 45.2387 765.366 59.4792 730.751 64.0033" stroke="#FFBA08" stroke-miterlimit="10"/>
<path d="M633.389 62.9846C665.347 65.59 697.497 64.5426 729.217 59.8626" stroke="#47585B" stroke-miterlimit="10"/>
<path d="M802.676 49.489C802.106 45.9179 801.581 42.544 801.022 39.0277L800.124 39.7617C798.123 41.5258 795.823 42.9171 793.332 43.8695C792.94 44.0413 792.512 44.1132 792.086 44.0787C791.659 44.0443 791.248 43.9047 790.889 43.6723C789.345 42.6864 787.745 41.7663 786.157 40.8242C786.395 40.4763 786.728 40.2045 787.117 40.0413C787.505 39.8781 787.933 39.8304 788.348 39.9041C789.599 40.0374 790.858 40.0996 792.116 40.0903C792.511 40.0841 792.894 39.9538 793.212 39.7178C797.593 35.9934 801.975 32.2544 806.357 28.5007C807.495 27.4985 808.97 26.9625 810.486 27C811.845 27 812.414 27.8983 811.834 29.1908C811.513 29.8389 811.07 30.4191 810.53 30.8997C809.248 32.0718 807.912 33.1782 806.576 34.2846C806.402 34.4121 806.259 34.5765 806.157 34.7659C806.055 34.9553 805.996 35.165 805.984 35.38C805.699 39.0825 805.349 42.785 805.064 46.4875C805.061 46.8625 804.967 47.2312 804.79 47.5615C804.612 47.8918 804.357 48.1737 804.045 48.3826C803.57 48.7273 803.113 49.0966 802.676 49.489Z" fill="#47585B"/>
<path d="M790.604 33.9231C791.623 33.0467 792.335 31.9075 793.978 32.1594C795.621 32.4114 797.265 32.4223 798.995 32.5428L799.554 32.6195C798.305 33.7149 797.166 34.6351 796.016 35.5881C795.95 35.6357 795.875 35.6691 795.796 35.6861C795.717 35.7031 795.635 35.7033 795.556 35.6867C794.022 35.2047 792.488 34.7118 790.966 34.2079C790.856 34.175 790.78 34.0655 790.604 33.9231Z" fill="#47585B"/>
</g>
<defs>
<clipPath id="clip0">
<rect width="184.064" height="45.92" fill="white" transform="translate(628 27)"/>
</clipPath>
</defs>
</svg>
